<svg xmlns="http://www.w3.org/2000/svg" aria-hidden="true" style="position:absolute;width:0;height:0;overflow:hidden">
  <defs>
    <symbol id="icon-youtube" viewBox="0 0 32 32">
      <path d="M25.155 4.889c-1.511-.089-4.622-.178-9.333-.178H15.2c-4.533 0-7.556.089-9.067.267-2.044.178-3.467.711-4.267 1.422C1.155 7.022.622 8.178.444 9.689c-.089.978-.178 3.022-.178 6.133v.444c0 2.933.089 4.978.267 5.956.267 1.422.711 2.489 1.6 3.111.889.711 2.4 1.156 4.533 1.333 1.511.089 4.622.178 9.333.178h.622c4.533 0 7.556-.089 9.067-.267 2.044-.178 3.467-.711 4.267-1.422.711-.622 1.244-1.778 1.422-3.289.089-.978.178-3.022.178-6.133v-.444c0-2.933-.089-4.978-.267-5.956-.267-1.422-.711-2.489-1.6-3.111-.889-.711-2.4-1.156-4.533-1.333zm-3.466 10.933-9.778 5.867V9.956l9.778 5.867z"/>
    </symbol>
    <symbol id="icon-ellipse" viewBox="0 0 32 32">
      <path fill="#3350e9" d="M32 16c0 8.837-7.163 16-16 16S0 24.837 0 16 7.163 0 16 0s16 7.163 16 16z" style="fill:var(--color1, #3350e9)"/>
    </symbol>
    <symbol id="icon-facebook" viewBox="0 0 32 32">
      <path d="M20.693 1.92h1.28v4.8h-1.6c-.64 0-1.28 0-1.6.32-.32.32-.32.64-.32 1.387v1.707h3.52v4.053h-3.52v17.6h-5.44V14.08h-2.88v-4.053h2.88V8.64c0-2.347.32-4.053.96-4.8.96-1.387 2.88-2.027 5.76-2.027.32.107.64.107.96.107z"/>
    </symbol>
    <symbol id="icon-burger" viewBox="0 0 32 32">
      <path stroke-linecap="round" stroke-linejoin="round" stroke-width="2.4" d="M4 11.333h24M4 20.667h24"/>
    </symbol>
    <symbol id="icon-instagram" viewBox="0 0 32 32">
      <path d="M31.897 9.445a11.557 11.557 0 0 0-.745-3.931A8.18 8.18 0 0 0 26.473.843a11.734 11.734 0 0 0-3.885-.745C20.879.022 20.337 0 15.997 0s-4.896 0-6.593.098a11.763 11.763 0 0 0-3.883.745A8.18 8.18 0 0 0 .842 5.514 11.621 11.621 0 0 0 .097 9.39c-.076 1.708-.1 2.249-.1 6.582s0 4.886.1 6.582a11.68 11.68 0 0 0 .745 3.88 8.18 8.18 0 0 0 4.681 4.669c1.237.482 2.55.756 3.883.798 1.711.076 2.253.099 6.593.099s4.896 0 6.593-.099a11.756 11.756 0 0 0 3.885-.743 8.198 8.198 0 0 0 4.679-4.671c.467-1.242.718-2.551.744-3.88.076-1.707.1-2.248.1-6.582-.004-4.332-.004-4.882-.103-6.58zM15.988 24.164c-4.538 0-8.215-3.671-8.215-8.201s3.677-8.201 8.215-8.201c4.535 0 8.215 3.67 8.215 8.201s-3.68 8.201-8.215 8.201zM24.53 9.37a1.912 1.912 0 1 1 0-3.824 1.912 1.912 0 1 1 0 3.824z"/>
    </symbol>
    <symbol id="icon-close" viewBox="0 0 32 32">
      <path stroke-linecap="round" stroke-linejoin="round" stroke-width="2.4" d="M24 8 8 24M8 8l16 16"/>
    </symbol>
  </defs>
</svg>
